<svg version="1.1" id="Layer_1" xmlns="http://www.w3.org/2000/svg" xmlns:xlink="http://www.w3.org/1999/xlink" x="0px" y="0px"
	 width="100%" viewBox="0 0 500 500" enable-background="new 0 0 500 500" xml:space="preserve">
<path fill="#000000" opacity="1.000000" stroke="none" 
	d="
M271.000000,501.000000 
	C180.666687,501.000000 90.833374,501.000000 1.000048,501.000000 
	C1.000032,334.333405 1.000032,167.666794 1.000016,1.000138 
	C167.666565,1.000092 334.333130,1.000092 500.999756,1.000046 
	C500.999847,167.666519 500.999847,334.333038 500.999939,500.999786 
	C424.500000,501.000000 348.000000,501.000000 271.000000,501.000000 
M394.003448,264.242279 
	C393.379333,262.185059 392.755219,260.127808 392.152527,258.141144 
	C386.434296,257.913055 385.963715,256.532867 387.354462,244.443176 
	C389.247894,244.291397 391.183319,244.136246 393.187836,243.975555 
	C393.187836,241.265411 393.187836,238.818878 393.187836,236.133194 
	C391.095154,236.035110 389.183533,235.945511 386.903656,235.838638 
	C386.903656,231.971161 386.903656,228.377594 386.903656,224.687683 
	C383.130402,224.687683 379.757721,224.687683 375.989044,224.687683 
	C375.989044,228.674088 375.989044,232.277267 375.989044,236.272003 
	C369.838165,234.990967 363.976990,233.472000 359.441528,238.982468 
	C356.405609,233.331039 351.809875,236.953979 348.046112,235.900818 
	C348.046112,246.635605 348.046112,256.716919 348.046112,266.761658 
	C351.596100,266.761658 354.859985,266.761658 358.471832,266.761658 
	C358.471832,261.542419 358.377197,256.563843 358.506287,251.591034 
	C358.587677,248.456192 359.343994,245.228500 363.086090,244.865341 
	C367.300446,244.456345 371.585052,244.771179 376.259247,244.771179 
	C376.259247,249.086472 375.934784,253.422485 376.325134,257.693146 
	C377.206055,267.330902 385.620361,271.110443 394.755890,266.120209 
	C398.344849,266.494781 401.933807,266.869324 405.800659,267.272888 
	C405.800659,260.968353 405.821289,255.661301 405.793884,250.354507 
	C405.773438,246.389709 407.688782,243.852676 411.616455,243.699936 
	C415.955200,243.531204 417.149536,246.576508 417.136322,250.361008 
	C417.117340,255.798904 417.131500,261.236908 417.131500,266.669922 
	C421.031128,266.669922 424.406067,266.669922 427.934662,266.669922 
	C427.934662,259.686371 427.971344,253.046555 427.922729,246.407364 
	C427.885651,241.344894 425.310425,238.006393 420.691345,236.112991 
	C415.533539,233.998779 410.717072,234.806625 405.637878,238.558228 
	C405.637878,230.184265 405.637878,222.627655 405.637878,215.086472 
	C401.885834,215.086472 398.623962,215.086472 395.006897,215.086472 
	C395.006897,230.253143 395.038452,245.189636 394.962128,260.125549 
	C394.953735,261.766479 394.326385,263.404266 394.003448,264.242279 
M179.494904,245.190933 
	C179.316467,245.214432 179.138031,245.237930 178.275894,244.789459 
	C178.185913,243.470322 178.009399,242.150528 178.019470,240.832153 
	C178.110535,228.904800 170.404037,219.033310 158.726166,217.414551 
	C152.598236,216.565094 146.255585,217.264557 140.035553,217.264557 
	C140.035553,233.967422 140.035553,250.377869 140.035553,266.769531 
	C154.868439,267.638550 169.473343,268.577667 177.155334,251.784821 
	C181.695175,263.902344 186.959030,268.207031 196.529480,267.987335 
	C203.692291,267.822906 208.552277,264.909210 210.360779,259.453583 
	C208.248840,258.322815 206.085831,257.164673 204.005524,256.050812 
	C196.506058,261.251892 190.927414,260.048340 190.105072,252.820007 
	C197.250793,252.820007 204.356644,252.820007 212.148132,252.820007 
	C211.672699,249.943207 211.137192,247.567535 210.960678,245.165482 
	C210.898972,244.325775 211.721664,243.421097 212.549591,243.264191 
	C216.188675,250.171112 219.683350,257.161316 223.581177,263.919006 
	C224.423401,265.379150 226.599487,266.394836 228.367950,266.923096 
	C231.350586,267.814056 232.995697,266.207123 234.391174,263.409637 
	C238.838638,254.493881 243.654602,245.761902 248.787979,236.092911 
	C251.873871,247.035553 254.654968,256.897369 257.444244,266.788269 
	C261.774292,266.788269 265.869354,266.788269 270.128967,266.788269 
	C272.552307,258.274109 274.931122,249.916245 277.309967,241.558380 
	C277.665405,241.544083 278.020844,241.529785 278.376282,241.515488 
	C280.804077,249.983154 283.231903,258.450806 285.639771,266.848938 
	C289.999420,266.848938 293.956329,266.848938 298.218048,266.848938 
	C302.836517,250.344894 307.435272,233.911301 312.095459,217.258194 
	C307.704224,217.258194 303.627808,217.258194 299.533569,217.258194 
	C296.871307,228.065430 294.270142,238.624496 291.669006,249.183563 
	C291.338959,249.223282 291.008911,249.262985 290.678894,249.302704 
	C287.823090,238.542923 284.967285,227.783157 282.148621,217.163177 
	C279.021393,217.163177 276.386902,217.163177 273.524475,217.163177 
	C270.643738,228.119995 267.789886,238.974442 264.569733,251.222076 
	C261.522552,238.922379 258.827576,228.044327 256.135956,217.179916 
	C251.868179,217.179916 247.918915,217.179916 243.640610,217.179916 
	C245.337967,223.501144 246.966049,229.564438 248.717880,236.088608 
	C244.200897,236.088608 240.126801,236.088608 236.106415,236.088608 
	C233.647644,241.474426 231.336517,246.536835 228.671082,252.375320 
	C226.383728,247.189789 224.683075,242.853989 222.534744,238.752655 
	C221.878662,237.500137 220.068985,236.293976 218.653107,236.111786 
	C215.566742,235.714630 212.393951,235.989075 208.740555,235.989075 
	C210.052628,238.515640 211.114960,240.561310 211.450516,243.450806 
	C210.835968,243.048447 210.061234,242.772186 209.630539,242.225098 
	C200.971268,231.225815 186.517868,232.581970 179.494904,245.190933 
M98.522675,300.014160 
	C113.413239,301.283356 116.790321,292.588989 116.837326,281.801300 
	C116.867783,274.811920 117.013069,267.816895 116.786270,260.834778 
	C116.635895,256.205383 117.743034,252.919220 123.058685,252.673203 
	C123.058685,249.773285 123.058685,247.125992 123.058685,244.167404 
	C117.684761,243.770050 116.721138,240.303314 116.757240,235.509262 
	C116.827248,226.212143 116.725754,216.885788 116.032272,207.621185 
	C115.603394,201.891556 112.209496,197.431244 106.256386,196.461777 
	C101.967484,195.763321 97.473259,196.325699 93.333000,196.325699 
	C93.333000,200.423370 93.333000,204.156906 93.333000,207.862686 
	C101.059715,208.164398 102.314095,209.429733 102.347694,216.764969 
	C102.375900,222.922256 101.918900,229.120895 102.495789,235.223801 
	C102.934074,239.860443 104.659157,244.375458 105.971039,249.576324 
	C103.308418,251.249176 102.357559,255.183426 102.356308,259.539642 
	C102.354622,265.364227 102.518356,271.195343 102.286552,277.010742 
	C102.164764,280.065948 102.160500,283.642822 100.589523,285.956238 
	C99.379410,287.738251 95.808136,287.916901 93.127701,288.864716 
	C93.127701,292.254333 93.127701,295.871948 93.127701,299.816284 
	C94.684586,299.885681 96.125999,299.949921 98.522675,300.014160 
M56.374435,245.191925 
	C56.374435,247.651367 56.374435,250.110825 56.374435,252.683472 
	C61.742680,253.013321 63.093624,256.073151 63.030869,260.534058 
	C62.913792,268.855896 62.868626,277.185059 63.086407,285.503479 
	C63.283657,293.038055 67.210640,298.630676 73.407410,299.574921 
	C77.715271,300.231323 82.203926,299.701263 86.805534,299.701263 
	C86.805534,296.321075 86.819763,293.341339 86.794228,290.361908 
	C86.788727,289.721100 86.639587,289.081512 86.562599,288.487518 
	C77.675476,287.272949 77.138428,286.627380 77.136955,277.338898 
	C77.136055,271.678650 77.013832,266.014923 77.173813,260.359222 
	C77.309464,255.563629 76.542473,251.251022 73.574554,249.451126 
	C74.935600,244.771057 76.667046,241.042557 76.992043,237.195221 
	C77.522652,230.913849 77.134483,224.554993 77.137268,218.228836 
	C77.141106,209.480621 77.870140,208.640060 86.553253,207.549713 
	C86.553253,203.835175 86.553253,200.097809 86.553253,195.993073 
	C84.335960,195.993073 82.370857,195.992050 80.405746,195.993240 
	C67.717033,196.000839 63.072598,200.651031 63.000961,213.498154 
	C62.960117,220.822952 62.779091,228.156616 63.067581,235.470261 
	C63.262810,240.419708 61.535587,243.450409 56.374435,245.191925 
M339.178406,264.788605 
	C343.121063,261.876709 345.584167,258.092194 345.944763,253.118515 
	C346.870819,240.345856 334.317596,231.645615 321.154633,235.920731 
	C313.340851,238.458511 308.560394,245.263977 309.246490,252.873230 
	C309.946136,260.632874 315.622711,267.147491 323.660461,267.614227 
	C328.553253,267.898346 333.569977,266.048645 339.178406,264.788605 
z"/>
<path fill="#F9F9F9" opacity="1.000000" stroke="none" 
	d="
M212.177292,242.606964 
	C211.114960,240.561310 210.052628,238.515640 208.740555,235.989075 
	C212.393951,235.989075 215.566742,235.714630 218.653107,236.111786 
	C220.068985,236.293976 221.878662,237.500137 222.534744,238.752655 
	C224.683075,242.853989 226.383728,247.189789 228.671082,252.375320 
	C231.336517,246.536835 233.647644,241.474426 236.106415,236.088608 
	C240.126801,236.088608 244.200897,236.088608 248.717880,236.088608 
	C246.966049,229.564438 245.337967,223.501144 243.640610,217.179916 
	C247.918915,217.179916 251.868179,217.179916 256.135956,217.179916 
	C258.827576,228.044327 261.522552,238.922379 264.569733,251.222076 
	C267.789886,238.974442 270.643738,228.119995 273.524475,217.163177 
	C276.386902,217.163177 279.021393,217.163177 282.148621,217.163177 
	C284.967285,227.783157 287.823090,238.542923 290.678894,249.302704 
	C291.008911,249.262985 291.338959,249.223282 291.669006,249.183563 
	C294.270142,238.624496 296.871307,228.065430 299.533569,217.258194 
	C303.627808,217.258194 307.704224,217.258194 312.095459,217.258194 
	C307.435272,233.911301 302.836517,250.344894 298.218048,266.848938 
	C293.956329,266.848938 289.999420,266.848938 285.639771,266.848938 
	C283.231903,258.450806 280.804077,249.983154 278.376282,241.515488 
	C278.020844,241.529785 277.665405,241.544083 277.309967,241.558380 
	C274.931122,249.916245 272.552307,258.274109 270.128967,266.788269 
	C265.869354,266.788269 261.774292,266.788269 257.444244,266.788269 
	C254.654968,256.897369 251.873871,247.035553 248.787979,236.092911 
	C243.654602,245.761902 238.838638,254.493881 234.391174,263.409637 
	C232.995697,266.207123 231.350586,267.814056 228.367950,266.923096 
	C226.599487,266.394836 224.423401,265.379150 223.581177,263.919006 
	C219.683350,257.161316 216.188675,250.171112 212.321014,242.940323 
	C212.092453,242.616455 212.177292,242.606964 212.177292,242.606964 
z"/>
<path fill="#FCFCFC" opacity="1.000000" stroke="none" 
	d="
M211.813904,243.028885 
	C212.177292,242.606964 212.092453,242.616455 212.116470,242.581268 
	C211.721664,243.421097 210.898972,244.325775 210.960678,245.165482 
	C211.137192,247.567535 211.672699,249.943207 212.148132,252.820007 
	C204.356644,252.820007 197.250793,252.820007 190.105072,252.820007 
	C190.927414,260.048340 196.506058,261.251892 204.005524,256.050812 
	C206.085831,257.164673 208.248840,258.322815 210.360779,259.453583 
	C208.552277,264.909210 203.692291,267.822906 196.529480,267.987335 
	C186.959030,268.207031 181.695175,263.902344 177.155334,251.784821 
	C169.473343,268.577667 154.868439,267.638550 140.035553,266.769531 
	C140.035553,250.377869 140.035553,233.967422 140.035553,217.264557 
	C146.255585,217.264557 152.598236,216.565094 158.726166,217.414551 
	C170.404037,219.033310 178.110535,228.904800 178.019470,240.832153 
	C178.009399,242.150528 178.185913,243.470322 178.509308,245.249268 
	C178.833954,246.047043 178.925201,246.385040 179.016434,246.723022 
	C179.347916,246.159348 179.679398,245.595673 180.010880,245.031998 
	C186.517868,232.581970 200.971268,231.225815 209.630539,242.225098 
	C210.061234,242.772186 210.835968,243.048447 211.813904,243.028885 
M151.003189,255.008514 
	C152.072403,255.569550 153.188171,256.687927 154.203461,256.603149 
	C162.101990,255.943436 167.295990,248.828522 166.400574,240.180939 
	C165.523636,231.711685 159.637909,226.841568 150.997269,227.729797 
	C150.997269,236.494934 150.997269,245.295914 151.003189,255.008514 
M191.237823,243.858536 
	C190.836075,244.798355 190.434311,245.738159 190.018768,246.710251 
	C193.941925,246.710251 197.437286,246.710251 201.043991,246.710251 
	C198.880707,241.694626 197.148651,241.101944 191.237823,243.858536 
z"/>
<path fill="#F8F8F8" opacity="1.000000" stroke="none" 
	d="
M98.045044,300.014160 
	C96.125999,299.949921 94.684586,299.885681 93.127701,299.816284 
	C93.127701,295.871948 93.127701,292.254333 93.127701,288.864716 
	C95.808136,287.916901 99.379410,287.738251 100.589523,285.956238 
	C102.160500,283.642822 102.164764,280.065948 102.286552,277.010742 
	C102.518356,271.195343 102.354622,265.364227 102.356308,259.539642 
	C102.357559,255.183426 103.308418,251.249176 105.971039,249.576324 
	C104.659157,244.375458 102.934074,239.860443 102.495789,235.223801 
	C101.918900,229.120895 102.375900,222.922256 102.347694,216.764969 
	C102.314095,209.429733 101.059715,208.164398 93.333000,207.862686 
	C93.333000,204.156906 93.333000,200.423370 93.333000,196.325699 
	C97.473259,196.325699 101.967484,195.763321 106.256386,196.461777 
	C112.209496,197.431244 115.603394,201.891556 116.032272,207.621185 
	C116.725754,216.885788 116.827248,226.212143 116.757240,235.509262 
	C116.721138,240.303314 117.684761,243.770050 123.058685,244.167404 
	C123.058685,247.125992 123.058685,249.773285 123.058685,252.673203 
	C117.743034,252.919220 116.635895,256.205383 116.786270,260.834778 
	C117.013069,267.816895 116.867783,274.811920 116.837326,281.801300 
	C116.790321,292.588989 113.413239,301.283356 98.045044,300.014160 
z"/>
<path fill="#FBFBFB" opacity="1.000000" stroke="none" 
	d="
M56.475456,244.794617 
	C61.535587,243.450409 63.262810,240.419708 63.067581,235.470261 
	C62.779091,228.156616 62.960117,220.822952 63.000961,213.498154 
	C63.072598,200.651031 67.717033,196.000839 80.405746,195.993240 
	C82.370857,195.992050 84.335960,195.993073 86.553253,195.993073 
	C86.553253,200.097809 86.553253,203.835175 86.553253,207.549713 
	C77.870140,208.640060 77.141106,209.480621 77.137268,218.228836 
	C77.134483,224.554993 77.522652,230.913849 76.992043,237.195221 
	C76.667046,241.042557 74.935600,244.771057 73.574554,249.451126 
	C76.542473,251.251022 77.309464,255.563629 77.173813,260.359222 
	C77.013832,266.014923 77.136055,271.678650 77.136955,277.338898 
	C77.138428,286.627380 77.675476,287.272949 86.562599,288.487518 
	C86.639587,289.081512 86.788727,289.721100 86.794228,290.361908 
	C86.819763,293.341339 86.805534,296.321075 86.805534,299.701263 
	C82.203926,299.701263 77.715271,300.231323 73.407410,299.574921 
	C67.210640,298.630676 63.283657,293.038055 63.086407,285.503479 
	C62.868626,277.185059 62.913792,268.855896 63.030869,260.534058 
	C63.093624,256.073151 61.742680,253.013321 56.374435,252.683472 
	C56.374435,250.110825 56.374435,247.651367 56.475456,244.794617 
z"/>
<path fill="#F9F9F9" opacity="1.000000" stroke="none" 
	d="
M393.947906,265.810822 
	C385.620361,271.110443 377.206055,267.330902 376.325134,257.693146 
	C375.934784,253.422485 376.259247,249.086472 376.259247,244.771179 
	C371.585052,244.771179 367.300446,244.456345 363.086090,244.865341 
	C359.343994,245.228500 358.587677,248.456192 358.506287,251.591034 
	C358.377197,256.563843 358.471832,261.542419 358.471832,266.761658 
	C354.859985,266.761658 351.596100,266.761658 348.046112,266.761658 
	C348.046112,256.716919 348.046112,246.635605 348.046112,235.900818 
	C351.809875,236.953979 356.405609,233.331039 359.441528,238.982468 
	C363.976990,233.472000 369.838165,234.990967 375.989044,236.272003 
	C375.989044,232.277267 375.989044,228.674088 375.989044,224.687683 
	C379.757721,224.687683 383.130402,224.687683 386.903656,224.687683 
	C386.903656,228.377594 386.903656,231.971161 386.903656,235.838638 
	C389.183533,235.945511 391.095154,236.035110 393.187836,236.133194 
	C393.187836,238.818878 393.187836,241.265411 393.187836,243.975555 
	C391.183319,244.136246 389.247894,244.291397 387.354462,244.443176 
	C385.963715,256.532867 386.434296,257.913055 392.152527,258.141144 
	C392.755219,260.127808 393.379333,262.185059 393.983917,264.834656 
	C393.964386,265.427032 393.947906,265.810822 393.947906,265.810822 
z"/>
<path fill="#F7F7F7" opacity="1.000000" stroke="none" 
	d="
M394.351898,265.965515 
	C393.947906,265.810822 393.964386,265.427032 393.975250,265.235260 
	C394.326385,263.404266 394.953735,261.766479 394.962128,260.125549 
	C395.038452,245.189636 395.006897,230.253143 395.006897,215.086472 
	C398.623962,215.086472 401.885834,215.086472 405.637878,215.086472 
	C405.637878,222.627655 405.637878,230.184265 405.637878,238.558228 
	C410.717072,234.806625 415.533539,233.998779 420.691345,236.112991 
	C425.310425,238.006393 427.885651,241.344894 427.922729,246.407364 
	C427.971344,253.046555 427.934662,259.686371 427.934662,266.669922 
	C424.406067,266.669922 421.031128,266.669922 417.131500,266.669922 
	C417.131500,261.236908 417.117340,255.798904 417.136322,250.361008 
	C417.149536,246.576508 415.955200,243.531204 411.616455,243.699936 
	C407.688782,243.852676 405.773438,246.389709 405.793884,250.354507 
	C405.821289,255.661301 405.800659,260.968353 405.800659,267.272888 
	C401.933807,266.869324 398.344849,266.494781 394.351898,265.965515 
z"/>
<path fill="#F8F8F8" opacity="1.000000" stroke="none" 
	d="
M338.854736,264.973022 
	C333.569977,266.048645 328.553253,267.898346 323.660461,267.614227 
	C315.622711,267.147491 309.946136,260.632874 309.246490,252.873230 
	C308.560394,245.263977 313.340851,238.458511 321.154633,235.920731 
	C334.317596,231.645615 346.870819,240.345856 345.944763,253.118515 
	C345.584167,258.092194 343.121063,261.876709 338.854736,264.973022 
M328.273987,258.774628 
	C332.059113,258.201263 334.690155,255.927032 334.441498,252.226837 
	C334.277405,249.785141 332.774750,246.591400 330.838440,245.363754 
	C329.134674,244.283554 325.230255,244.571701 323.693390,245.886703 
	C321.945679,247.382095 321.027161,250.693207 321.045563,253.205566 
	C321.072510,256.874115 324.041443,258.423035 328.273987,258.774628 
z"/>
<path fill="#F8F8F8" opacity="1.000000" stroke="none" 
	d="
M179.752899,245.111465 
	C179.679398,245.595673 179.347916,246.159348 179.016434,246.723022 
	C178.925201,246.385040 178.833954,246.047043 178.851166,245.485229 
	C179.138031,245.237930 179.316467,245.214432 179.752899,245.111465 
z"/>
<path fill="#050505" opacity="1.000000" stroke="none" 
	d="
M151.000229,254.552704 
	C150.997269,245.295914 150.997269,236.494934 150.997269,227.729797 
	C159.637909,226.841568 165.523636,231.711685 166.400574,240.180939 
	C167.295990,248.828522 162.101990,255.943436 154.203461,256.603149 
	C153.188171,256.687927 152.072403,255.569550 151.000229,254.552704 
z"/>
<path fill="#0B0B0B" opacity="1.000000" stroke="none" 
	d="
M191.527145,243.575470 
	C197.148651,241.101944 198.880707,241.694626 201.043991,246.710251 
	C197.437286,246.710251 193.941925,246.710251 190.018768,246.710251 
	C190.434311,245.738159 190.836075,244.798355 191.527145,243.575470 
z"/>
<path fill="#0B0B0B" opacity="1.000000" stroke="none" 
	d="
M327.887939,258.793091 
	C324.041443,258.423035 321.072510,256.874115 321.045563,253.205566 
	C321.027161,250.693207 321.945679,247.382095 323.693390,245.886703 
	C325.230255,244.571701 329.134674,244.283554 330.838440,245.363754 
	C332.774750,246.591400 334.277405,249.785141 334.441498,252.226837 
	C334.690155,255.927032 332.059113,258.201263 327.887939,258.793091 
z"/>
</svg>